<?xml version="1.0" encoding="UTF-8"?>
<svg width="32px" height="32px" viewBox="0 0 32 32" version="1.1" xmlns="http://www.w3.org/2000/svg" xmlns:xlink="http://www.w3.org/1999/xlink">
    <!-- Generator: Sketch 50.2 (55047) - http://www.bohemiancoding.com/sketch -->
    <title>icon/32/关闭</title>
    <desc>Created with Sketch.</desc>
    <defs></defs>
    <g id="icon/32/关闭" stroke="none" stroke-width="1" fill="none" fill-rule="evenodd">
        <path d="M17.7469517,15.6256313 L28.7071068,26.5857864 C29.0976311,26.9763107 29.0976311,27.6094757 28.7071068,28 L28,28.7071068 C27.6094757,29.0976311 26.9763107,29.0976311 26.5857864,28.7071068 L15.6256313,17.7469517 L4.66547622,28.7071068 C4.27495193,29.0976311 3.64178695,29.0976311 3.25126266,28.7071068 L2.54415588,28 C2.15363159,27.6094757 2.15363159,26.9763107 2.54415588,26.5857864 L13.504311,15.6256313 L2.54415588,4.66547622 C2.15363159,4.27495193 2.15363159,3.64178695 2.54415588,3.25126266 L3.25126266,2.54415588 C3.64178695,2.15363159 4.27495193,2.15363159 4.66547622,2.54415588 L15.6256313,13.504311 L26.5857864,2.54415588 C26.9763107,2.15363159 27.6094757,2.15363159 28,2.54415588 L28.7071068,3.25126266 C29.0976311,3.64178695 29.0976311,4.27495193 28.7071068,4.66547622 L17.7469517,15.6256313 Z" id="Combined-Shape-Copy" fill="#CACACD" fill-rule="nonzero"></path>
    </g>
</svg>